<?xml version="1.0" encoding="UTF-8" standalone="no"?><!DOCTYPE svg PUBLIC "-//W3C//DTD SVG 1.1//EN" "http://www.w3.org/Graphics/SVG/1.1/DTD/svg11.dtd"><svg width="100%" height="100%" viewBox="0 0 640 469" version="1.1" xmlns="http://www.w3.org/2000/svg" xmlns:xlink="http://www.w3.org/1999/xlink" xml:space="preserve" xmlns:serif="http://www.serif.com/" style="fill-rule:evenodd;clip-rule:evenodd;stroke-linejoin:round;stroke-miterlimit:2;"><path d="M215.184,217.532l-215.184,0l0,-158.955l106.542,-58.511l0,171.685l106.542,0l0,-171.239l106.542,58.511l0,-0.511l106.542,-58.511l106.542,-0l0,0.511l105.523,57.951l1.019,0l-0,159.07l-217.794,-0.765l-42.947,79.251l-58.115,-207.211l-58.01,206.839l-47.205,-78.114Zm221.16,-29.609l78.273,0l38.118,-23.612l0,-61.251l-40.097,-22.931l-76.294,-0l0,107.794Zm-115.945,-0l48.956,174.556l58.642,-112.522l181.911,0l-73.788,40.816l103.135,120.649l-79.276,56.809l-133.809,-156.532l0,156.532l-95.888,-52.66l0,-38.789l-21.308,0l0,38.789l-95.888,52.66l0,-171.685l-106.542,-0l0,171.685l-106.542,-58.511l0,-159.021l204.222,0l67.325,111.408l48.852,-174.184Z"/></svg>